<?xml version="1.0" encoding="utf-8"?>
<!-- Generator: Adobe Illustrator 16.0.0, SVG Export Plug-In . SVG Version: 6.00 Build 0)  -->
<!DOCTYPE svg PUBLIC "-//W3C//DTD SVG 1.0//EN" "http://www.w3.org/TR/2001/REC-SVG-20010904/DTD/svg10.dtd">
<svg version="1.0" id="Layer_1" xmlns="http://www.w3.org/2000/svg" xmlns:xlink="http://www.w3.org/1999/xlink" x="0px" y="0px"
	 width="708.66px" height="708.66px" viewBox="0 0 708.66 708.66" enable-background="new 0 0 708.66 708.66" xml:space="preserve">
<g>
	<path fill="none" stroke="#373431" stroke-width="12" stroke-linecap="round" stroke-linejoin="round" stroke-miterlimit="10" d="
		M320.145,673.21c0-10.742,8.716-19.457,19.458-19.457c10.767,0,19.482,8.715,19.482,19.457H320.145z"/>
	<path fill="none" stroke="#373431" stroke-width="12" stroke-linecap="round" stroke-linejoin="round" stroke-miterlimit="10" d="
		M385.011,673.21c0-10.742,8.717-19.457,19.482-19.457c10.767,0,19.457,8.715,19.457,19.457H385.011z"/>
	<path fill="none" stroke="#373431" stroke-width="12" stroke-linecap="round" stroke-linejoin="round" stroke-miterlimit="10" d="
		M316.459,573.237l9.545,86.082c3.516-3.443,8.301-5.566,13.598-5.566c10.767,0,19.482,8.715,19.482,19.457l5.176-106.59
		C348.367,567.157,332.327,569.306,316.459,573.237z"/>
	<path fill="none" stroke="#373431" stroke-width="12" stroke-linecap="round" stroke-linejoin="round" stroke-miterlimit="10" d="
		M379.861,566.646l5.15,106.442c0.098-10.693,8.766-19.335,19.482-19.335c5.298,0,10.083,2.123,13.598,5.566l9.57-86.059
		C412.062,569.403,396.072,567.206,379.861,566.646z"/>
	<path fill="none" stroke="#373431" stroke-width="12" stroke-linecap="round" stroke-linejoin="round" stroke-miterlimit="10" d="
		M438.795,257.895c-8.545-8.521-20.361-13.818-33.349-13.818l0,0v0.024c-13.036,0-24.829,5.273-33.397,13.818v-0.024
		c-8.545-8.521-20.361-13.818-33.35-13.818l0,0v0.024c-13.037,0-24.828,5.273-33.397,13.818
		c8.569-8.545,20.361-13.818,33.397-13.818v-0.024l0,0c12.988,0,24.805,5.298,33.35,13.818v0.024
		c8.568-8.545,20.361-13.818,33.397-13.818v-0.024l0,0C418.433,244.076,430.25,249.374,438.795,257.895z"/>
	<path fill="none" stroke="#373431" stroke-width="12" stroke-linecap="round" stroke-linejoin="round" stroke-miterlimit="10" d="
		M409.328,213.438c5.371-5.383,8.666-12.792,8.666-20.996v-16.503c0-25.927-9.862-51.842-29.662-71.629v0.122
		c-10.059-10.059-16.283-23.974-16.283-39.33l0,0h-0.024c30.736,0,55.638,24.901,55.638,55.626v48.351h0.025
		C427.687,186.399,420.679,202.061,409.328,213.438z"/>
	<path fill="none" stroke="#373431" stroke-width="12" stroke-linecap="round" stroke-linejoin="round" stroke-miterlimit="10" d="
		M334.744,213.438c-5.371-5.383-8.667-12.792-8.667-20.996v-16.503c0-25.927,9.863-51.842,29.639-71.629v0.122
		c10.082-10.059,16.308-23.974,16.308-39.33l0,0l0,0c-30.713,0-55.614,24.901-55.614,55.626v48.351h-0.024
		C316.385,186.399,323.392,202.061,334.744,213.438z"/>
	<path fill="none" stroke="#373431" stroke-width="12" stroke-linecap="round" stroke-linejoin="round" stroke-miterlimit="10" d="
		M388.332,104.31v0.122c-10.059-10.059-16.283-23.974-16.283-39.33c-0.024,0-0.024,0-0.024,0c0,15.356-6.226,29.271-16.308,39.33
		v-0.122c-11.5,11.499-19.532,25.097-24.366,39.55c7.641,23.168,22.949,39.025,40.698,39.025c17.699,0,33.031-15.845,40.673-38.988
		C407.887,129.431,399.831,115.82,388.332,104.31z"/>
	<path fill="none" stroke="#373431" stroke-width="12" stroke-linecap="round" stroke-linejoin="round" stroke-miterlimit="10" d="
		M79.941,673.21c0-16.869,13.671-30.59,30.578-30.59c16.918,0,30.627,13.721,30.627,30.59H79.941z"/>
	<path fill="none" stroke="#373431" stroke-width="12" stroke-linecap="round" stroke-linejoin="round" stroke-miterlimit="10" d="
		M167.06,673.21c0-16.869,13.672-30.59,30.578-30.59c16.918,0,30.614,13.721,30.614,30.59H167.06z"/>
	<path fill="none" stroke="#373431" stroke-width="12" stroke-linecap="round" stroke-linejoin="round" stroke-miterlimit="10" d="
		M197.638,642.62c6.372,0,12.28,1.953,17.187,5.297l6.006-241.668H87.338l6.018,241.668c4.907-3.344,10.803-5.297,17.163-5.297
		c16.906,0,30.603,13.695,30.615,30.565l12.963-207.612l12.963,207.515C167.134,656.267,180.769,642.62,197.638,642.62z"/>
	<path fill="none" stroke="#373431" stroke-width="12" stroke-linecap="round" stroke-linejoin="round" stroke-miterlimit="10" d="
		M202.545,92.286V63.368c0-11.548-9.387-20.935-20.934-20.935c-3.027,0-5.872,0.671-8.459,1.807
		c-7.092-5.505-15.966-8.801-25.634-8.801c-23.12,0-41.881,18.75-41.881,41.881v14.965c-6.311,2.209-10.876,8.191-10.876,15.295
		c0,13.867,7.056,25.122,15.832,25.5c8.081,24.89,24.511,41.955,43.505,41.955s35.424-17.065,43.493-41.955
		c8.776-0.378,15.82-11.633,15.82-25.5C213.409,100.477,208.881,94.495,202.545,92.286z"/>
	<path fill="none" stroke="#373431" stroke-width="12" stroke-linecap="round" stroke-linejoin="round" stroke-miterlimit="10" d="
		M202.545,92.286c-11.56,0-20.934-9.387-20.934-20.959l0,0c-12.939,12.939-30.81,20.959-50.573,20.959l0,0h-25.402h25.402l0,0
		c19.763,0,37.633-8.02,50.573-20.959l0,0C181.611,82.899,190.986,92.286,202.545,92.286z"/>
	<path fill="none" stroke="#373431" stroke-width="12" stroke-linecap="round" stroke-linejoin="round" stroke-miterlimit="10" d="
		M592.868,155.065l-5.468-0.024c3.393-3.394,5.517-8.105,5.517-13.305c-8.251,8.227-19.604,13.305-32.177,13.305v0.024
		c-12.865,0-23.291,10.424-23.291,23.291v22.875l6.641,6.652l6.08-19.543l0,0c14.696,14.709,38.549,14.709,53.27,0l0,0l6.079,19.543
		l6.665-6.652v-22.875C616.183,165.489,605.759,155.065,592.868,155.065z"/>
	<path fill="none" stroke="#373431" stroke-width="12" stroke-linecap="round" stroke-linejoin="round" stroke-miterlimit="10" d="
		M616.183,201.231l-6.665,6.652l-6.079-19.543l0,0c-14.721,14.709-38.573,14.709-53.27,0l0,0l-6.08,19.543l-6.641-6.652l0,0
		c-5.126,1.831-8.837,6.665-8.837,12.426c0,11.291,5.712,20.41,12.866,20.739c6.543,20.227,19.896,34.093,35.326,34.093
		c15.429,0,28.783-13.867,35.35-34.081c7.129-0.317,12.867-9.46,12.867-20.751C625.021,207.896,621.31,203.062,616.183,201.231z"/>
	<path fill="none" stroke="#373431" stroke-width="12" stroke-linecap="round" stroke-linejoin="round" stroke-miterlimit="10" d="
		M516.576,673.21c0-13.695,11.108-24.828,24.854-24.828c13.72,0,24.853,11.133,24.853,24.828H516.576z"/>
	<path fill="none" stroke="#373431" stroke-width="12" stroke-linecap="round" stroke-linejoin="round" stroke-miterlimit="10" d="
		M587.351,673.21c0-13.695,11.107-24.828,24.852-24.828c13.746,0,24.878,11.133,24.878,24.828H587.351z"/>
	<path fill="none" stroke="#373431" stroke-width="12" stroke-linecap="round" stroke-linejoin="round" stroke-miterlimit="10" d="
		M612.203,648.382c5.176,0,9.961,1.586,13.941,4.271l4.906-196.332H522.582l4.883,196.332c4.004-2.686,8.789-4.271,13.965-4.271
		c13.72,0,24.853,11.107,24.853,24.804l10.546-168.673l10.523,168.6C587.424,659.44,598.483,648.382,612.203,648.382z"/>
	<path fill="none" stroke="#373431" stroke-width="12" stroke-linecap="round" stroke-linejoin="round" stroke-miterlimit="10" d="
		M669.551,317.415c-2.441-5.884-6.029-11.182-10.473-15.601v-0.098c-4.42-4.443-9.741-7.983-15.625-10.424
		c-1.196-0.488-22.68-9.399-45.043-18.676l-2.075-12.353c-5.761,5.175-12.378,8.227-19.507,8.227
		c-7.152,0-13.793-3.064-19.555-8.251l-2.075,12.39c-22.362,9.289-43.87,18.176-44.993,18.664
		c-5.908,2.441-11.23,5.981-15.674,10.424v0.098c-4.419,4.419-8.008,9.717-10.449,15.601c-2.368,5.664-3.687,11.889-3.687,18.408
		v168.69c3.296,0,6.396-0.658,9.229-1.83c2.93-1.221,5.614-2.979,7.812-5.201v-0.049c2.223-2.221,4.004-4.857,5.25-7.813
		l19.896-153.798v120.499h108.469V335.822l19.896,153.798c1.221,2.955,3.027,5.592,5.225,7.813v0.049
		c2.223,2.223,4.883,3.98,7.838,5.201c2.832,1.172,5.932,1.83,9.203,1.83v-168.69C673.213,329.304,671.894,323.078,669.551,317.415z
		"/>
	<path fill="none" stroke="#373431" stroke-width="12" stroke-linecap="round" stroke-linejoin="round" stroke-miterlimit="10" d="
		M253.875,458.616l14.331-200.697c0-5.334,0.928-10.4,2.271-15.332c-0.684-2.465-1.27-4.98-2.246-7.324
		c-3.003-7.227-7.422-13.769-12.878-19.213v-0.122c-5.457-5.444-12-9.827-19.25-12.817c-1.453-0.61-27.893-11.56-55.431-22.973
		l-2.539-15.222c-7.104,6.36-15.271,10.12-24.035,10.12c-8.777,0-16.955-3.76-24.072-10.132l-2.527,15.234
		C99.96,191.563,73.52,202.5,72.08,203.11c-7.263,2.991-13.806,7.373-19.262,12.817v0.122c-5.457,5.444-9.863,11.987-12.878,19.213
		c-2.893,6.982-4.517,14.624-4.517,22.656v207.654c4.028,0,7.849-0.805,11.352-2.246c3.613-1.514,6.909-3.686,9.631-6.42v-0.049
		c2.722-2.734,4.932-5.982,6.433-9.619l24.499-189.32v148.33h133.493v-148.33l24.511,189.32c1.514,3.637,3.723,6.885,6.433,9.619
		v0.049C252.41,457.542,253.179,458.054,253.875,458.616z"/>
	<path fill="none" stroke="#373431" stroke-width="12" stroke-linecap="round" stroke-linejoin="round" stroke-miterlimit="10" d="
		M480.395,335.822c0-2.051,0.342-3.992,0.61-5.957l-5.151-71.946c0-8.032-1.61-15.674-4.491-22.656
		c-3.004-7.227-7.422-13.769-12.891-19.213v-0.11c-5.444-5.457-11.987-9.827-19.238-12.83c-1.196-0.488-19.213-7.958-40.844-16.918
		l-2.318-14.05c-6.982,6.799-15.211,10.742-24.023,10.742c-8.813,0-17.041-3.943-24.023-10.73l-2.344,14.038
		c-21.63,8.96-39.647,16.43-40.819,16.918c-7.25,3.003-13.793,7.373-19.262,12.83v0.11c-5.457,5.444-9.875,11.987-12.878,19.213
		c-2.905,6.982-4.517,14.624-4.517,22.656l-14.819,207.654c4.028,0,7.812-0.805,11.328-2.246c3.638-1.514,6.909-3.686,9.644-6.42
		v-0.049c2.71-2.734,4.932-5.982,6.445-9.619l24.499-189.32c18.432,44.481,18.554,92.234,1.489,133.486h-0.049
		c-2.93,7.031-23.681,192.817-23.681,192.817c59.3-24.584,122.947-22.802,177.974-0.024c-0.072-0.708-20.775-185.762-23.681-192.793
		h-0.049c-17.065-41.252-16.942-89.005,1.465-133.486l24.511,189.32c1.514,3.637,3.736,6.885,6.445,9.619v0.049
		c2.711,2.734,6.006,4.906,9.644,6.42c0.342,0.123,0.708,0.172,1.025,0.318V335.822z"/>
</g>
</svg>
