<?xml version="1.0" encoding="UTF-8"?>
<svg id="Expanded" xmlns="http://www.w3.org/2000/svg" viewBox="0 0 64 64">
  <path d="M57,4c-1.65,0-3,1.35-3,3v2H10v-2c0-1.65-1.35-3-3-3s-3,1.35-3,3v48c0,2.76,2.24,5,5,5h46c2.76,0,5-2.24,5-5V7c0-1.65-1.35-3-3-3ZM56,7c0-.55.45-1,1-1s1,.45,1,1v45h-2V7ZM54,15h-9c-2.44,0-4.47,1.75-4.91,4.07-3.43.45-6.09,3.38-6.09,6.93v1.18c-1.16.41-2,1.51-2,2.82,0,1.65,1.35,3,3,3h12c1.65,0,3-1.35,3-3,0-1.3-.84-2.4-2-2.82v-1.18c0-3.47-2.54-6.34-5.85-6.9.38-1.21,1.51-2.1,2.85-2.1h9v35h-26V11h26v4ZM35,29h12c.55,0,1,.45,1,1s-.45,1-1,1h-12c-.55,0-1-.45-1-1s.45-1,1-1ZM46,27h-10v-1c0-2.76,2.24-5,5-5s5,2.24,5,5v1ZM26,11v41H10v-4h1c3.86,0,7-3.14,7-7v-4c0-2.76-2.24-5-5-5h-3V11h16ZM10,34h3c1.65,0,3,1.35,3,3v4c0,2.76-2.24,5-5,5h-1v-12ZM6,7c0-.55.45-1,1-1s1,.45,1,1v45h-2V7ZM58,55c0,1.65-1.35,3-3,3H9c-1.65,0-3-1.35-3-3v-1h52v1ZM40,38v-2c0-.55.45-1,1-1s1,.45,1,1v2c0,.55-.45,1-1,1s-1-.45-1-1ZM36,38v-2c0-.55.45-1,1-1s1,.45,1,1v2c0,.55-.45,1-1,1s-1-.45-1-1ZM44,38v-2c0-.55.45-1,1-1s1,.45,1,1v2c0,.55-.45,1-1,1s-1-.45-1-1Z"/>
</svg>