<?xml version="1.0" encoding="utf-8"?>
<!-- Generator: Adobe Illustrator 16.0.0, SVG Export Plug-In . SVG Version: 6.00 Build 0)  -->
<!DOCTYPE svg PUBLIC "-//W3C//DTD SVG 1.0//EN" "http://www.w3.org/TR/2001/REC-SVG-20010904/DTD/svg10.dtd">
<svg version="1.0" id="Layer_1" xmlns="http://www.w3.org/2000/svg" xmlns:xlink="http://www.w3.org/1999/xlink" x="0px" y="0px"
	 width="100px" height="100px" viewBox="0 0 100 100" enable-background="new 0 0 100 100" xml:space="preserve">
<polygon points="10,70 10,90 16.667,90 16.667,83.333 83.333,83.333 83.333,90 90,90 90,70 "/>
<path d="M73.333,10H26.667C23,10,20,13.001,20,16.667v20h6.667V30c0-1.833,1.501-3.333,3.333-3.333h13.333
	c1.833,0,3.333,1.501,3.333,3.333v6.667h6.667V30c0-1.833,1.501-3.333,3.334-3.333H70c1.833,0,3.333,1.501,3.333,3.333v6.667H80v-20
	C80,13.001,76.999,10,73.333,10z"/>
<polygon points="90,63.333 80,43.333 20,43.333 10,63.333 "/>
</svg>
